<?xml version="1.0" encoding="UTF-8"?>
<!DOCTYPE svg PUBLIC "-//W3C//DTD SVG 1.1//EN" "http://www.w3.org/Graphics/SVG/1.1/DTD/svg11.dtd">
<svg version="1.1" xmlns="http://www.w3.org/2000/svg" xmlns:xlink="http://www.w3.org/1999/xlink" x="0" y="0" width="24" height="24" viewBox="0, 0, 24, 24">
  <g id="Background">
    <rect x="0" y="0" width="24" height="24" fill="#000000" fill-opacity="0"/>
  </g>
  <g id="Background"/>
  <g id="Layer_1">
    <path d="M20.477,4.841 C20.164,4.959 3.548,10.823 3.235,10.94 C2.962,11.018 2.884,11.292 3.235,11.409 C3.626,11.566 6.95,12.895 6.95,12.895 L9.139,13.755 C9.139,13.755 19.734,6.014 19.89,5.897 C20.008,5.78 20.203,5.975 20.086,6.092 C19.968,6.21 12.384,14.42 12.384,14.42 L11.954,14.928 L12.54,15.241 C12.54,15.241 17.075,17.665 17.388,17.86 C17.701,18.017 18.053,17.86 18.131,17.508 C18.248,17.117 20.907,5.545 20.985,5.271 C21.063,4.959 20.829,4.724 20.477,4.841 z M9.1,19.072 C9.1,19.307 9.256,19.346 9.452,19.189 C9.686,18.955 12.227,16.687 12.227,16.687 L9.1,15.084 z" fill="#795548"/>
  </g>
</svg>
