<?xml version="1.0" encoding="UTF-8"?>
<!DOCTYPE svg PUBLIC "-//W3C//DTD SVG 1.1//EN" "http://www.w3.org/Graphics/SVG/1.1/DTD/svg11.dtd">
<svg version="1.1" xmlns="http://www.w3.org/2000/svg" xmlns:xlink="http://www.w3.org/1999/xlink" x="0" y="0" width="24" height="24" viewBox="0, 0, 24, 24">
  <g id="Background">
    <rect x="0" y="0" width="24" height="24" fill="#000000" fill-opacity="0"/>
  </g>
  <g id="Layer_1">
    <path d="M7.8,14.2 L7.8,8 L4,8 C2.92,8 2,8.88 2,10 L2,16 C2,17.08 2.92,18 4,18 L5,18 L5,21 L8,18 L13,18 C14.12,18 15,17.08 15,16 L15,14.16 C14.96,14.16 14.88,14.2 14.8,14.2 z M20,3 L11,3 C9.92,3 9,3.88 9,5 L9,13 L16,13 L19,16 L19,13 L20,13 C21.12,13 22,12.08 22,11 L22,5 C22,3.88 21.12,3 20,3 z" fill="#000000" fill-opacity="0.87"/>
  </g>
</svg>
