<?xml version="1.0" encoding="UTF-8"?>
<!DOCTYPE svg PUBLIC "-//W3C//DTD SVG 1.1//EN" "http://www.w3.org/Graphics/SVG/1.1/DTD/svg11.dtd">
<svg version="1.1" xmlns="http://www.w3.org/2000/svg" xmlns:xlink="http://www.w3.org/1999/xlink" x="0" y="0" width="24" height="24" viewBox="0, 0, 24, 24">
  <g id="Background">
    <rect x="0" y="0" width="24" height="24" fill="#000000" fill-opacity="0"/>
  </g>
  <g id="Layer_1">
    <path d="M12.492,2.999 L12.495,5.132 C15.891,5.375 18.609,8.083 18.866,11.478 L20.997,11.475 L21,12.492 L18.867,12.495 C18.622,15.89 15.915,18.608 12.521,18.865 L12.525,20.999 L11.508,21.001 L11.505,18.867 C8.109,18.623 5.391,15.915 5.133,12.521 L3.002,12.526 L3,11.508 L5.132,11.505 C5.375,8.109 8.083,5.391 11.477,5.134 L11.473,3.002 L12.492,2.999 z M11.988,6.124 C8.748,6.131 6.119,8.771 6.126,12.012 C6.131,15.251 8.771,17.88 12.01,17.874 C15.249,17.868 17.882,15.229 17.875,11.989 C17.869,8.749 15.228,6.118 11.988,6.124 z" fill="#000000" fill-opacity="0.54"/>
  </g>
</svg>
