<?xml version="1.0" encoding="UTF-8"?>
<!DOCTYPE svg PUBLIC "-//W3C//DTD SVG 1.1//EN" "http://www.w3.org/Graphics/SVG/1.1/DTD/svg11.dtd">
<svg version="1.1" xmlns="http://www.w3.org/2000/svg" xmlns:xlink="http://www.w3.org/1999/xlink" x="0" y="0" width="24" height="24" viewBox="0, 0, 24, 24">
  <g id="Background">
    <rect x="0" y="0" width="24" height="24" fill="#000000" fill-opacity="0"/>
  </g>
  <g id="Layer_1">
    <path d="M15.305,12.819 C15.305,14.648 13.822,16.132 11.994,16.132 C10.164,16.132 8.68,14.648 8.68,12.819 C8.68,10.99 10.164,9.507 11.994,9.507 C13.822,9.507 15.305,10.99 15.305,12.819 M20.99,7.324 L20.99,18.176 C20.99,18.631 21.012,19.002 20.99,19 C20.969,18.998 3.004,19 3.004,19 L3.004,18.176 C3.004,18.176 2.995,9.315 3.004,8.921 C3.014,8.526 3.004,7.975 3.004,7.975 L6.939,6.705 C6.939,6.705 7.526,6.509 8.045,6.501 C8.565,6.49 9.178,6.501 9.178,6.501 L9.178,5.813 L9.178,4.998 L14.878,4.998 L14.878,5.813 L14.878,6.501 L20.99,6.501 z M11.994,17.659 C14.666,17.659 16.833,15.491 16.833,12.819 C16.833,10.147 14.666,7.978 11.994,7.978 C9.319,7.978 7.153,10.147 7.153,12.819 C7.153,15.491 9.319,17.659 11.994,17.659 M6.629,5.735 L6.629,5.482 L3.752,5.482 L3.752,5.735 L3.752,7.056 L6.629,6.081 z" fill="#000000" fill-opacity="0.54"/>
  </g>
</svg>
